<svg viewBox="0 0 800 1000" xmlns="http://www.w3.org/2000/svg">
  <rect x="80" y="80" width="620" height="800" fill="#eff7f4" />

  <defs>
    <pattern id="dotGrid" x="0" y="0" width="35" height="35" patternUnits="userSpaceOnUse">
      <rect x="0" y="0" width="6" height="6" fill="#e2e8e5" />
    </pattern>
  </defs>
  <rect x="530" y="10" width="230" height="260" fill="url(#dotGrid)" />

  <path d="M 68 55 L 14 55 A 54 54 0 0 1 68 1 Z" fill="#42b89a" />
  <path d="M 54 110 A 54 54 0 0 1 108 56 L 108 110 Z" fill="#184353" />

  <path d="M 590 770 L 590 990 A 200 200 0 0 0 790 770 Z" fill="#42b89a" />

  <path d="M 255 965 L 275 945 L 295 965 L 315 945 L 335 965 L 355 945 L 375 965 L 395 945 L 415 965" fill="none" stroke="#e0e8f0" stroke-width="2" />
  <circle cx="240" cy="965" r="6" fill="#42b89a" />
  <circle cx="425" cy="955" r="6" fill="#42b89a" />
</svg>
